<svg width="41" height="28" viewBox="0 0 41 28" fill="none" xmlns="http://www.w3.org/2000/svg">
<path d="M38.2867 1H3.39304C1.98295 1 0.839844 2.1431 0.839844 3.55319V24.8298C0.839844 26.2399 1.98295 27.383 3.39304 27.383H38.2867C39.6967 27.383 40.8398 26.2399 40.8398 24.8298V3.55319C40.8398 2.1431 39.6967 1 38.2867 1Z" fill="#0077A6"/>
<path d="M38.2864 1.42529H3.3928C2.21772 1.42529 1.26514 2.37788 1.26514 3.55295V24.8295C1.26514 26.0046 2.21772 26.9572 3.3928 26.9572H38.2864C39.4615 26.9572 40.4141 26.0046 40.4141 24.8295V3.55295C40.4141 2.37788 39.4615 1.42529 38.2864 1.42529Z" stroke="#B6B6B6"/>
<path fill-rule="evenodd" clip-rule="evenodd" d="M29.8947 19.299V18.5216H27.777V17.7709H29.8412V17.0205H27.777V16.3232H29.8947V15.5458H26.8921V19.299H29.8947ZM35.6857 19.2988C36.5972 19.2988 37.1067 18.924 37.1067 18.1195C37.1067 17.7443 36.9994 17.5027 36.8387 17.3151C36.6243 17.1272 36.3025 17.0201 35.7931 17.0201H35.3107C35.1766 17.0201 35.0692 16.9933 34.9618 16.9667C34.8547 16.9128 34.7743 16.8324 34.7743 16.6983C34.7743 16.5642 34.8276 16.4837 34.9082 16.4032C34.9886 16.3498 35.0962 16.3498 35.2566 16.3498H36.9189V15.5454H35.1228C34.1844 15.5454 33.8361 16.1352 33.8361 16.6717C33.8361 17.8511 34.8817 17.7975 35.7126 17.8245C35.8734 17.8245 35.9806 17.8511 36.0343 17.905C36.0881 17.9584 36.1415 18.0655 36.1415 18.173C36.1415 18.2801 36.0879 18.3605 36.0343 18.4144C35.9806 18.4678 35.8466 18.4944 35.6857 18.4944H33.9432V19.2988H35.6857ZM32.1736 19.2988C33.0847 19.2988 33.5945 18.9238 33.5945 18.1195C33.5945 17.7443 33.4873 17.5027 33.3264 17.3151C33.1119 17.1272 32.79 17.0201 32.2806 17.0201H31.7982C31.6643 17.0201 31.5568 16.9931 31.4497 16.9667C31.3422 16.9128 31.2622 16.8324 31.2622 16.6983C31.2622 16.5642 31.2888 16.4837 31.3961 16.4032C31.4767 16.3498 31.5837 16.3498 31.7446 16.3498H33.4069V15.5454H31.6107C30.6454 15.5454 30.3236 16.1352 30.3236 16.6717C30.3236 17.851 31.3693 17.7975 32.2006 17.8245C32.3611 17.8245 32.4685 17.8511 32.522 17.905C32.5754 17.9584 32.6295 18.0655 32.6295 18.173C32.6295 18.2801 32.5757 18.3605 32.522 18.4144C32.4415 18.4678 32.3345 18.4944 32.1736 18.4944H30.4308V19.2988H32.1736ZM26.3289 19.2988V18.5749C26.3289 18.2264 26.3022 18.0655 26.1951 17.878C26.1146 17.7705 25.954 17.6366 25.7395 17.5561C25.9805 17.476 26.3829 17.1542 26.3829 16.5642C26.3828 16.1354 26.2218 15.894 25.9269 15.7336C25.6317 15.5726 25.2833 15.5456 24.8275 15.5456H22.7634V19.2988H23.6747V17.9316H24.64C24.9614 17.9316 25.1494 17.9586 25.2836 18.0925C25.4445 18.2801 25.4445 18.6019 25.4445 18.8433V19.2988H26.3289ZM23.6747 16.323H24.7739C24.9348 16.323 25.0958 16.323 25.2029 16.4034C25.3104 16.4573 25.3904 16.5644 25.3904 16.7253C25.3904 16.8862 25.3104 17.0203 25.2029 17.1008C25.0688 17.1542 24.9348 17.1542 24.7739 17.1542L23.6747 17.1812V16.323ZM19.6534 19.2988V18.0391H20.7794C21.5569 18.0391 22.3347 17.8245 22.3347 16.7789C22.3345 15.7602 21.53 15.5456 20.833 15.5456H17.9642L16.8113 16.7789L15.712 15.5456H12.0928V19.2988H15.6587L16.8115 18.0655L17.9106 19.2988H19.6534ZM18.7683 15.9479V18.9774L17.3744 17.4222L18.7683 15.9479ZM12.9774 17.7709H14.9613V17.0205H12.9774V16.3232H15.2296L16.2214 17.4224L15.2026 18.5216H12.9774V17.7709ZM19.6532 16.323H20.833C21.1548 16.323 21.3693 16.4573 21.3693 16.7789C21.3693 17.1008 21.1545 17.2883 20.833 17.2883H19.6532V16.323ZM18.2859 12.8379V12.0603H16.1947V11.3096H18.259V10.5322H16.1947V9.86188H18.2859V9.0845H15.2832V12.8379H18.2859ZM34.6132 12.8377L34.613 9.08429H33.7017V11.6849L32.12 9.08429H30.7256V12.6234L29.2242 9.0845H27.8837L26.5969 12.0335H26.1946C25.9536 12.0335 25.712 11.9799 25.5781 11.846C25.4172 11.6582 25.3367 11.3632 25.3367 10.9611C25.3367 10.559 25.4172 10.2642 25.5781 10.1033C25.7656 9.94235 25.9536 9.8887 26.275 9.8887H27.1329V9.08429H26.275C25.6586 9.08429 25.1759 9.2182 24.9078 9.51321C24.506 9.91531 24.4255 10.4247 24.4255 10.9878C24.4255 11.6581 24.5864 12.087 24.8813 12.4086C25.2029 12.7305 25.7659 12.8377 26.1948 12.8377H27.2406L27.589 12.0065H29.4656L29.8146 12.8377H31.6373V10.0226L33.3263 12.8377H34.6132ZM28.5275 9.72778L29.1443 11.2023H27.9109L28.5275 9.72778ZM23.9698 12.8377V9.08429H23.0585V12.8377H23.9698ZM22.4946 12.8377V12.087C22.4946 11.7653 22.468 11.6044 22.334 11.4167C22.2537 11.3094 22.0928 11.1753 21.9052 11.095C22.1462 10.9878 22.5486 10.6929 22.5486 10.1031C22.5488 9.67413 22.361 9.43277 22.066 9.24521C21.7711 9.08429 21.4497 9.08429 20.9939 9.08429H18.9293V12.8377H19.814V11.4703H20.7792C21.101 11.4703 21.3154 11.4971 21.4493 11.6312C21.6104 11.819 21.5834 12.1408 21.5834 12.3552V12.8377H22.4946ZM19.814 9.86209H20.9132C21.0741 9.86209 21.2615 9.86209 21.3689 9.91571C21.476 9.99619 21.5299 10.1035 21.5299 10.2642C21.5299 10.4249 21.4763 10.5588 21.3693 10.6127C21.2352 10.6931 21.1011 10.6931 20.9135 10.6931H19.814V9.86209ZM14.6127 12.8377L14.6129 9.08429H13.1383L12.0391 11.6312L10.8595 9.08429H9.41174V12.6232L7.88354 9.08429H6.54309L4.93457 12.8377H5.89966L6.24805 12.0065H8.12476L8.47327 12.8377H10.2964V9.8887L11.61 12.8377H12.3873L13.7012 9.8887V12.8377H14.6127ZM7.8031 11.2023H6.56982L7.18652 9.72778L7.8031 11.2023ZM30.5946 19.999L24.7445 19.9988V18.8433C24.7445 18.7878 24.7445 18.7053 24.7402 18.6329C24.7124 18.6321 24.6793 18.6316 24.64 18.6316H24.3746V19.9988H22.0635V18.4812C21.7471 18.639 21.3296 18.7391 20.7794 18.7391H20.3534V19.9988H17.5968L16.7992 19.1038L15.9625 19.9988H11.3928V14.8456H16.0259L16.8236 15.7407L17.6604 14.8456H20.833C21.3148 14.8456 21.7288 14.9339 22.0635 15.1005V14.8456H24.8275C25.276 14.8456 25.7493 14.8647 26.1921 15.0827V14.8458H30.5946V15.0589C30.8705 14.9244 31.208 14.8454 31.6107 14.8454H34.1068V15.0659C34.3831 14.9276 34.7207 14.8454 35.1228 14.8454H37.6189V17.0498H37.5131C37.7103 17.3524 37.8066 17.7046 37.8066 18.1195C37.8066 19.2963 37.0138 19.9988 35.6857 19.9988H33.2433V19.8046C32.9427 19.9319 32.5837 19.9988 32.1736 19.9988L30.5946 19.999ZM18.9858 13.5379L13.0012 13.5378V13.18L12.8418 13.5378H11.1555L10.9963 13.1805V13.5378H8.00769L7.65918 12.7065H6.71362L6.36523 13.5378H3.87305L6.08154 8.38428H8.34375L8.71179 9.23648V8.38428H11.3068L12.0165 9.9169L12.678 8.38428H20.9939C21.4905 8.38428 21.9215 8.38428 22.3585 8.60806V8.38428H24.6698V8.79669C25.0616 8.5228 25.5996 8.38428 26.275 8.38428L29.6876 8.38449L30.0256 9.18103V8.38428H32.5135L33.0017 9.18683V8.38428H35.313V13.5378H32.9299L32.3373 12.55V13.5378H29.3492L29.0002 12.7065H28.0546L27.7062 13.5378H26.1948C25.896 13.5378 25.218 13.4935 24.6698 13.1334V13.5378H20.8834V12.3552C20.8834 12.3262 20.8838 12.2955 20.8843 12.2635C20.8846 12.2384 20.885 12.2057 20.885 12.1718C20.8552 12.1709 20.8202 12.1703 20.7792 12.1703H20.5139V13.5378L18.9858 13.5379ZM26.0803 11.3255C26.0968 11.3281 26.1165 11.3303 26.1394 11.3318L26.4636 10.5887H26.275C26.1627 10.5887 26.1096 10.5956 26.0785 10.6068C26.0625 10.6534 26.0366 10.76 26.0366 10.9611C26.0366 11.1513 26.0599 11.2637 26.0803 11.3255Z" fill="white"/>
</svg>
