<svg width="195" height="32" viewBox="0 0 195 32" fill="none" xmlns="http://www.w3.org/2000/svg">
<g clip-path="url(#clip0_12076_8295)">
<path d="M22.4237 23.6958V28.3087C20.6238 28.8537 18.1959 29.1065 15.0147 29.232V28.687C18.0277 27.5557 20.4556 25.5836 22.4237 23.6958Z" fill="black"/>
<path d="M23.4542 19.1669C23.4542 13.7992 27.6821 9.93927 32.7043 9.47852V9.89803C30.8632 10.3588 30.067 12.2466 30.067 17.0693C30.067 21.892 32.2856 24.4091 36.0106 24.4091C38.2292 24.4091 40.1544 23.7386 41.3674 22.7741V23.4033C40.5712 25.5422 38.3545 29.1905 32.9959 29.1905C26.5924 29.1905 23.4525 24.5346 23.4525 19.1669H23.4542ZM35.549 16.5243C35.549 12.4976 34.8799 10.1921 33.7491 9.89803V9.47852C39.1059 9.81377 41.1992 13.7149 41.1992 17.4046H31.3212V16.942L35.549 16.5225V16.5243Z" fill="black"/>
<path d="M49.594 0V28.8554H43.0224V0.670514L49.594 0Z" fill="black"/>
<path d="M51.2168 19.6708C51.2168 13.0858 56.4484 9.68839 61.764 9.47863V9.89814C59.4613 10.2334 57.9978 13.0015 57.9978 19.0415C57.9978 24.2425 59.9229 26.3813 62.1004 26.3813C62.9377 26.3813 63.7321 25.9618 64.1096 25.6265V26.0461C63.4816 27.5986 62.0163 29.1924 58.8781 29.1924C54.0652 29.1924 51.2186 25.3755 51.2186 19.6726L51.2168 19.6708ZM63.02 9.89814V9.47863C63.5227 9.47863 64.6106 9.60412 64.9451 9.64715V0.670514L71.5168 0V28.5183L64.9451 29.1064V10.8214C64.4012 10.3589 63.8985 10.1079 63.02 9.89814Z" fill="black"/>
<path d="M73.0573 19.3336C73.0573 13.7562 77.4515 9.93927 82.9764 9.47852V9.89803C82.4325 10.0235 81.9298 10.3176 81.554 10.6528C80.2139 11.9938 79.8794 14.511 79.8794 19.3336C79.8794 24.1563 80.2139 26.6734 81.554 27.9732C81.9315 28.3927 82.4325 28.6437 82.9764 28.771V29.1905C77.4515 28.728 73.0573 24.9129 73.0573 19.3354V19.3336ZM85.6137 27.9732C86.952 26.6734 87.2883 24.1563 87.2883 19.3336C87.2883 14.511 86.9537 11.9938 85.6137 10.6528C85.2791 10.3176 84.7352 10.0235 84.2324 9.89803V9.47852C89.7162 9.93927 94.1104 13.7562 94.1104 19.3336C94.1104 24.9111 89.7162 28.728 84.2324 29.1888V28.7692C84.7352 28.6437 85.2791 28.3497 85.6137 27.9714V27.9732Z" fill="black"/>
<path d="M102.128 9.39453V28.8538H95.599V10.065L102.128 9.39453ZM104.849 12.5822C104.053 12.5822 103.593 12.8332 102.924 13.2114V12.8762C104.137 11.0726 106.062 9.47879 108.783 9.47879C112.508 9.47879 113.974 11.5764 113.974 14.9308V28.8538H107.445V15.3485C107.445 13.3764 106.733 12.5804 104.851 12.5804L104.849 12.5822ZM116.693 12.5822C115.897 12.5822 115.437 12.8332 114.768 13.2114V12.8762C115.981 11.0726 117.865 9.47879 120.671 9.47879C124.355 9.47879 125.818 11.5764 125.818 14.9308V28.8538H119.289V15.3485C119.289 13.3764 118.577 12.5804 116.695 12.5804L116.693 12.5822Z" fill="black"/>
<path d="M0 15.6442C0 7.75943 6.99029 2.39174 14.3134 2.05469V2.5997C10.0856 3.47998 7.78468 7.88314 7.78468 15.6425C7.78468 23.4018 9.83508 27.8049 14.0629 28.6852V29.2302C5.31563 28.8967 0 23.6958 0 15.6442Z" fill="black"/>
<path d="M19.6827 2.37528C18.4535 2.20317 17.0615 2.0956 15.496 2.05078V2.5958C15.9397 2.7446 16.3602 2.90954 16.7645 3.09062C15.8109 3.79878 15.1919 4.93363 15.1919 6.2137C15.1919 8.35791 16.9274 10.1543 19.0672 10.1543C21.3234 10.1543 22.9998 8.47445 22.9998 6.2137C22.9998 4.27029 21.6221 2.66034 19.6827 2.37528Z" fill="black"/>
<path d="M130.91 15.6116V15.5022C131.399 15.4216 131.737 15.2584 132.077 14.9052C132.51 14.4714 132.74 14.0232 132.971 13.4513L133.08 13.5051C133.054 13.627 132.944 14.0895 132.944 14.4552C132.944 15.1204 133.406 15.4467 134.082 15.5005V15.6098H130.91V15.6116ZM135.979 12.311H133.39L133.512 11.9578H135.843L134.691 8.82042L135.422 6.95947H135.721L138.391 13.8995C138.824 15.0003 139.339 15.4072 140.003 15.5022V15.6116H135.787V15.5022C136.451 15.461 136.762 15.2584 136.762 14.7421C136.762 14.457 136.653 14.1039 136.478 13.6556L135.977 12.311H135.979Z" fill="black"/>
<path d="M140.412 7.82732C140.412 7.35223 140.235 7.10661 139.722 6.82155V6.75343L141.878 6.03271L141.905 6.05961C141.89 6.61717 141.863 7.40422 141.863 7.94744V14.3173C141.863 15.1599 142.053 15.4038 142.704 15.4988V15.6082H139.588V15.4988C140.266 15.4038 140.414 15.1868 140.414 14.3173V7.82553L140.412 7.82732Z" fill="black"/>
<path d="M143.801 14.1845V10.4088H143.069V10.2331L145.116 8.2915L145.252 8.34529V9.79926H147.19L147.041 10.4106H145.252V13.7112C145.252 14.4445 145.537 14.8514 146.324 14.8514C146.703 14.8514 147.097 14.7833 147.301 14.7295V14.7833C147.043 15.1777 146.229 15.7209 145.295 15.7209C144.279 15.7209 143.805 15.2458 143.805 14.1863L143.801 14.1845Z" fill="black"/>
<path d="M150.077 15.434C150.253 15.529 150.43 15.5972 150.607 15.6097V15.7191C148.913 15.6778 147.517 14.5376 147.517 12.7304C147.517 10.9233 149.022 9.80994 150.349 9.67368V9.7687C150.051 9.80994 149.78 10.0125 149.577 10.2976C149.292 10.7046 149.088 11.5059 149.088 12.7286C149.088 14.2902 149.441 15.0916 150.077 15.4322V15.434ZM151.31 9.9193C151.133 9.80994 150.958 9.78304 150.781 9.77049V9.66113C152.475 9.70237 153.858 10.8426 153.858 12.6623C153.858 14.482 152.38 15.529 151.038 15.7047V15.5954C151.282 15.5685 151.607 15.3372 151.811 15.0378C152.096 14.6434 152.3 13.8563 152.3 12.6336C152.3 11.0846 151.947 10.2563 151.31 9.91751V9.9193Z" fill="black"/>
<path d="M160.868 18.2454C160.596 18.4228 159.662 18.8836 158.549 18.8836C157.356 18.8836 156.665 18.4085 156.665 17.7559C156.665 17.1446 157.696 16.5063 158.184 16.397L158.225 16.4651C158.009 16.5601 157.751 16.899 157.751 17.3615C157.751 18.0535 158.05 18.5286 159.093 18.5286C159.744 18.5286 160.489 18.3529 160.868 18.1629V18.2436V18.2454ZM161.26 17.9872C161.559 17.7972 162.018 17.3633 162.018 16.847C162.018 16.4257 161.841 16.1137 161.002 16.1137C160.582 16.1137 158.846 16.2231 158.318 16.2231C157.723 16.2231 157.003 15.8968 157.003 15.0685C157.003 14.9197 157.057 14.701 157.193 14.4984C157.424 14.1721 157.803 13.8189 158.088 13.602L158.141 13.6432C157.993 13.8332 157.925 14.0233 157.925 14.1864C157.925 14.5665 158.263 14.6615 158.603 14.6615C158.997 14.6615 160.149 14.5522 160.988 14.5522C162.208 14.5522 162.845 14.9466 162.845 16.0456C162.845 17.0639 161.72 17.8384 161.26 18.0697V17.9872ZM159.268 9.67569V9.77071C158.658 9.98764 158.456 10.6528 158.442 11.5904C158.442 12.8131 158.862 13.4245 159.472 13.5876V13.6826C158.361 13.6414 157.087 13.0032 157.087 11.7536C157.087 10.4233 158.267 9.75637 159.27 9.67569H159.268ZM159.689 9.75637V9.66135C160.814 9.70259 162.074 10.3534 162.074 11.603C162.074 12.9476 160.895 13.6002 159.891 13.6808V13.5858C160.501 13.3546 160.705 12.7163 160.718 11.7787C160.718 10.5434 160.297 9.91772 159.687 9.75458L159.689 9.75637ZM161.831 10.2315V10.1221L163.308 9.62012L163.172 10.6797L161.831 10.2315Z" fill="black"/>
<path d="M165.679 14.3336C165.679 15.2031 166.005 15.4343 166.642 15.5025V15.6118H163.401V15.5025C164.092 15.4075 164.228 15.1905 164.228 14.321V11.4417C164.228 10.9935 164.065 10.721 163.55 10.4503V10.3696L165.65 9.64893L165.677 9.66327V14.3354L165.679 14.3336ZM166.71 10.7748C166.71 10.5704 166.778 10.3535 166.858 10.2728C166.844 10.2585 166.79 10.2459 166.749 10.2459C166.545 10.2459 166.248 10.3822 166.017 10.8035V10.7497C166.194 10.1921 166.736 9.66327 167.305 9.66327C167.957 9.66327 168.282 10.0308 168.282 10.6135C168.282 11.1567 167.916 11.483 167.456 11.483C167.023 11.483 166.71 11.1979 166.71 10.7766V10.7748Z" fill="black"/>
<path d="M171.183 14.8495V14.9033C171.047 15.2565 170.492 15.7191 169.8 15.7191C168.864 15.7191 168.377 15.0952 168.377 14.3601C168.377 13.6681 168.73 13.2593 168.878 13.1912C169.136 13.0962 170.342 12.7161 171.061 12.5261V12.6211C170.682 12.7699 170.22 12.9474 170.018 13.2181C169.869 13.4225 169.801 13.7075 169.801 13.9926C169.801 14.6452 170.059 14.984 170.628 14.984C170.832 14.984 171.102 14.9033 171.184 14.8478L171.183 14.8495ZM169.393 10.5181C169.76 10.5181 170.071 10.8175 170.071 11.1976C170.071 11.5777 169.76 11.8771 169.393 11.8771C169.027 11.8771 168.715 11.5777 168.715 11.1976C168.715 10.8175 169.027 10.5181 169.393 10.5181ZM169.651 10.2044C169.989 9.94619 170.723 9.66113 171.197 9.66113C172.322 9.66113 172.891 10.2044 172.891 11.3051V14.3888C172.891 14.8513 173.054 15.0127 173.406 15.0127C173.542 15.0127 173.732 14.9589 173.839 14.8908V14.9858C173.691 15.3121 173.271 15.7191 172.566 15.7191C171.861 15.7191 171.44 15.2565 171.44 14.4551V11.3589C171.44 10.5988 170.83 10.2456 169.651 10.2456V10.2044Z" fill="black"/>
<path d="M174.722 11.2249C174.722 10.3823 174.654 10.1653 173.868 10.056V9.94661L176.146 9.71533L176.173 9.72967V13.5466C176.173 14.4842 176.416 14.8231 177.216 14.8231C177.609 14.8231 177.867 14.7424 178.137 14.5792V14.633C177.799 15.2031 177.228 15.6926 176.348 15.6926C175.21 15.6926 174.722 15.0275 174.722 13.9141V11.2249ZM179.914 14.2942C179.914 14.9181 179.994 15.0956 180.823 15.2318V15.3269L178.504 15.6944L178.463 15.6675V11.2267C178.463 10.3841 178.341 10.1671 177.554 10.0578V9.9484L179.885 9.71713L179.912 9.73147V14.296L179.914 14.2942Z" fill="black"/>
<path d="M187.165 14.4964C186.922 15.0665 186.256 15.7191 185.308 15.7191C183.845 15.7191 182.923 14.4695 182.923 12.9618C182.923 11.454 184.061 10.2457 185.281 9.85123V9.9606C184.834 10.2994 184.401 11.1421 184.401 12.3791C184.401 13.955 185.228 14.6739 186.176 14.6739C186.609 14.6739 186.976 14.552 187.165 14.457V14.4982V14.4964ZM188.833 14.3333C188.833 14.9446 188.969 15.0665 189.253 15.149L189.742 15.2709V15.3516L187.423 15.7191L187.382 15.7048V11.8341C187.382 11.3447 187.314 10.6939 186.949 10.2994C186.65 9.97315 186.297 9.81 185.784 9.81V9.71498C185.988 9.67374 186.204 9.64685 186.435 9.64685C186.815 9.64685 187.208 9.72753 187.41 9.81V7.92216C187.41 7.42017 187.235 7.13512 186.72 6.83571V6.76759L188.847 6.04688L188.874 6.06122C188.86 6.61878 188.833 7.42017 188.833 7.9634V14.3333Z" fill="black"/>
<path d="M192.18 9.79739C191.516 9.94619 191.096 10.8157 191.096 12.1065C191.096 13.5605 191.842 14.6201 193.116 14.6201C194.079 14.6201 194.621 14.2256 194.932 13.7918L195 13.8456C194.796 14.4838 193.996 15.7191 192.425 15.7191C190.651 15.7191 189.659 14.3476 189.659 12.7717C189.659 11.0595 190.865 9.85117 192.18 9.68803V9.79739ZM191.57 11.7534V11.6583L193.386 11.4952C193.345 10.64 193.143 9.83862 192.56 9.77049V9.66113C193.916 9.70237 194.782 10.6938 194.782 11.7534H191.568H191.57Z" fill="black"/>
<path d="M132.78 24.5849C132.78 24.0955 132.576 23.7979 132.048 23.5397V23.459L134.243 22.7383L134.27 22.7527C134.256 23.3102 134.229 24.1116 134.229 24.6549V27.4122C134.229 28.2548 134.46 28.4987 135.109 28.5937V28.703H131.951V28.5937C132.642 28.4987 132.778 28.2817 132.778 27.4122V24.5867L132.78 24.5849ZM133.485 19.8447C133.959 19.8447 134.338 20.2391 134.338 20.6999C134.338 21.1607 133.959 21.5425 133.485 21.5425C133.011 21.5425 132.631 21.1624 132.631 20.6999C132.631 20.2374 133.011 19.8447 133.485 19.8447Z" fill="black"/>
<path d="M137.85 27.4373C137.85 28.253 138.026 28.5112 138.663 28.5918V28.7012H135.573V28.5918C136.263 28.4968 136.399 28.2799 136.399 27.4104V24.5311C136.399 24.0829 136.251 23.8247 135.721 23.5397V23.459L137.822 22.7383L137.848 22.7526V27.439L137.85 27.4373ZM140.25 24.748C140.25 24.0148 139.978 23.6203 139.192 23.6203C138.854 23.6203 138.514 23.701 138.23 23.8104V23.7692C138.65 23.2259 139.435 22.7508 140.14 22.7508C141.266 22.7508 141.699 23.4429 141.699 24.4899V27.4104C141.699 28.2799 141.847 28.4968 142.525 28.5918V28.7012H139.435V28.5918C140.072 28.5112 140.25 28.253 140.25 27.4373V24.748Z" fill="black"/>
<path d="M144.79 28.8087C144.29 28.7944 143.502 28.6187 143.191 28.4825L143.096 26.6896H143.191C143.422 27.5323 144.1 28.5237 144.79 28.7263V28.8087ZM144.968 22.8602C144.71 22.9014 144.358 23.2277 144.358 23.7028C144.358 24.4235 144.953 24.6673 145.714 25.0474C146.581 25.51 147.367 25.9851 147.367 26.8815C147.367 28.1311 146.404 28.755 145.279 28.8105V28.7281C145.794 28.6599 146.2 28.3211 146.2 27.6685C146.2 27.0159 145.537 26.7309 144.764 26.3382C144.046 25.9582 143.232 25.5243 143.232 24.4916C143.232 23.554 143.951 22.8889 144.968 22.767V22.862V22.8602ZM145.442 22.7508C146.066 22.7508 146.757 22.914 146.973 23.0215L147.054 24.5831H146.959C146.687 23.7279 146.079 22.9534 145.44 22.844V22.749L145.442 22.7508Z" fill="black"/>
<path d="M151.244 28.8088C151.028 28.8088 150.553 28.7263 150.308 28.6313V30.5066C150.308 31.3348 150.593 31.6073 151.271 31.7024V31.7974H148.031V31.7024C148.721 31.6073 148.857 31.3904 148.857 30.5209V24.5454C148.857 24.0703 148.68 23.8247 148.167 23.5397V23.459L150.281 22.7383L150.308 22.7526V26.7452C150.308 27.2616 150.376 27.8317 150.741 28.2118C151.04 28.538 151.5 28.6187 151.908 28.6456V28.755C151.759 28.7819 151.514 28.8088 151.244 28.8088ZM152.396 28.5094C152.965 28.1418 153.371 27.0428 153.371 25.8883C153.371 24.4755 152.776 23.4984 151.514 23.4984C151.189 23.4984 150.824 23.5666 150.566 23.7028V23.6759C150.918 23.2008 151.827 22.7526 152.504 22.7526C154.334 22.7526 154.889 24.0829 154.889 25.415C154.889 27.0177 154.021 28.1042 152.394 28.6205V28.5112L152.396 28.5094Z" fill="black"/>
<path d="M156.381 24.5849C156.381 24.0955 156.177 23.7979 155.649 23.5397V23.459L157.844 22.7383L157.871 22.7527C157.857 23.3102 157.83 24.1116 157.83 24.6549V27.4122C157.83 28.2548 158.061 28.4987 158.71 28.5937V28.703H155.552V28.5937C156.243 28.4987 156.379 28.2817 156.379 27.4122V24.5867L156.381 24.5849ZM157.086 19.8447C157.56 19.8447 157.939 20.2391 157.939 20.6999C157.939 21.1607 157.56 21.5425 157.086 21.5425C156.612 21.5425 156.232 21.1624 156.232 20.6999C156.232 20.2374 156.612 19.8447 157.086 19.8447Z" fill="black"/>
<path d="M161.993 27.4228C161.993 28.2923 162.319 28.5235 162.956 28.5899V28.6992H159.716V28.5899C160.406 28.4949 160.542 28.2779 160.542 27.4084V24.5291C160.542 24.0809 160.38 23.8084 159.864 23.5377V23.457L161.965 22.7363L161.992 22.7507V27.4228H161.993ZM163.024 23.864C163.024 23.6596 163.092 23.4427 163.172 23.362C163.158 23.3477 163.104 23.3351 163.063 23.3351C162.859 23.3351 162.562 23.4714 162.332 23.8927V23.8389C162.507 23.2813 163.051 22.7525 163.62 22.7525C164.271 22.7525 164.597 23.1182 164.597 23.7027C164.597 24.2459 164.23 24.5722 163.77 24.5722C163.337 24.5722 163.024 24.2871 163.024 23.8658V23.864Z" fill="black"/>
<path d="M168.039 27.9394V27.9932C167.903 28.3464 167.348 28.8089 166.656 28.8089C165.72 28.8089 165.234 28.1832 165.234 27.45C165.234 26.7579 165.586 26.3492 165.735 26.281C165.992 26.186 167.198 25.8059 167.917 25.6159V25.7109C167.538 25.8597 167.076 26.0372 166.874 26.3079C166.726 26.5123 166.658 26.7974 166.658 27.0824C166.658 27.735 166.915 28.0739 167.484 28.0739C167.688 28.0739 167.958 27.9932 168.041 27.9376L168.039 27.9394ZM166.25 23.6061C166.617 23.6061 166.928 23.9056 166.928 24.2856C166.928 24.6657 166.617 24.9651 166.25 24.9651C165.883 24.9651 165.572 24.6657 165.572 24.2856C165.572 23.9056 165.883 23.6061 166.25 23.6061ZM166.507 23.2942C166.846 23.036 167.579 22.751 168.053 22.751C169.179 22.751 169.748 23.2942 169.748 24.395V27.4786C169.748 27.9412 169.91 28.1043 170.263 28.1043C170.399 28.1043 170.589 28.0505 170.696 27.9824V28.0774C170.547 28.4037 170.127 28.8107 169.422 28.8107C168.717 28.8107 168.297 28.3482 168.297 27.5468V24.4506C168.297 23.6904 167.687 23.3372 166.507 23.3372V23.296V23.2942Z" fill="black"/>
<path d="M174.478 22.8725C173.664 22.9819 172.648 23.7958 172.648 25.3305C172.648 27.0821 173.584 27.6809 174.519 27.6809C175.292 27.6809 175.97 27.342 176.267 26.9207L176.335 26.9745C176.078 27.7347 175.387 28.8086 173.8 28.8086C172.12 28.8086 171.211 27.5446 171.211 25.9831C171.211 24.0684 172.986 22.8725 174.478 22.7632V22.8725ZM173.433 31.756C173.256 31.8779 172.877 31.9998 172.607 31.9998C172.242 31.9998 172.05 31.7685 172.05 31.5372C172.05 31.2791 172.254 31.0747 172.498 30.9528C172.634 31.3203 172.972 31.686 173.392 31.6735L173.433 31.7542V31.756ZM173.596 31.5516C173.677 31.4834 173.705 31.4153 173.705 31.3472C173.705 31.1034 173.569 30.994 173.326 30.6821C173.149 30.4508 173.042 30.2607 173.042 30.0707C173.042 29.7175 173.38 29.3787 173.854 29.0112L173.907 29.0524C173.786 29.2299 173.759 29.3249 173.759 29.4862C173.759 29.6351 173.895 29.9076 174.07 30.1245C174.287 30.4095 174.408 30.5727 174.408 30.804C174.408 30.899 174.34 31.0352 174.233 31.1697C174.111 31.306 173.866 31.5229 173.637 31.6179L173.596 31.5498V31.5516ZM175.439 22.8725C175.845 22.8725 176.185 23.2114 176.185 23.6058C176.185 24.0002 175.847 24.3534 175.439 24.3534C175.031 24.3534 174.707 24.0146 174.707 23.6058C174.707 23.197 175.045 22.8725 175.439 22.8725Z" fill="black"/>
<path d="M180.05 27.9393V27.9931C179.914 28.3463 179.359 28.8088 178.667 28.8088C177.731 28.8088 177.244 28.1831 177.244 27.4499C177.244 26.7578 177.597 26.3491 177.745 26.281C178.003 26.1859 179.209 25.8059 179.928 25.6158V25.7108C179.549 25.8596 179.087 26.0371 178.885 26.3078C178.736 26.5122 178.668 26.7973 178.668 27.0823C178.668 27.7349 178.926 28.0738 179.495 28.0738C179.699 28.0738 179.969 27.9931 180.051 27.9375L180.05 27.9393ZM178.261 23.6061C178.627 23.6061 178.939 23.9055 178.939 24.2855C178.939 24.6656 178.627 24.965 178.261 24.965C177.894 24.965 177.582 24.6656 177.582 24.2855C177.582 23.9055 177.894 23.6061 178.261 23.6061ZM182.123 19.9935C181.825 20.985 181.202 21.6232 180.619 21.6232C180.035 21.6232 179.52 21.5551 179.073 21.5551C178.735 21.5551 178.448 21.5551 178.11 22.0176L178.015 21.9638C178.572 21.0531 179.005 20.6049 179.493 20.6049C179.899 20.6049 180.51 20.673 181.025 20.673C181.445 20.673 181.757 20.5511 182.002 19.9541L182.123 19.9953V19.9935ZM178.516 23.2941C178.855 23.036 179.588 22.7509 180.062 22.7509C181.188 22.7509 181.757 23.2941 181.757 24.3949V27.4786C181.757 27.9411 181.919 28.1042 182.272 28.1042C182.408 28.1042 182.597 28.0505 182.705 27.9823V28.0774C182.556 28.4037 182.136 28.8106 181.431 28.8106C180.726 28.8106 180.306 28.3481 180.306 27.5467V24.4505C180.306 23.6903 179.695 23.3371 178.516 23.3371V23.2959V23.2941Z" fill="black"/>
<path d="M185.891 28.5238C186.068 28.6189 186.244 28.687 186.421 28.7013V28.8107C184.727 28.7695 183.331 27.6292 183.331 25.8221C183.331 24.0149 184.836 22.9016 186.163 22.7653V22.8603C185.864 22.9016 185.594 23.1042 185.39 23.391C185.106 23.798 184.902 24.5994 184.902 25.8221C184.902 27.3836 185.254 28.185 185.891 28.5256V28.5238ZM187.126 23.0091C186.949 22.8998 186.773 22.8729 186.596 22.8603V22.751C188.291 22.7922 189.674 23.9324 189.674 25.7522C189.674 27.5719 188.196 28.6189 186.854 28.7946V28.6852C187.097 28.6583 187.423 28.427 187.627 28.1276C187.911 27.7332 188.115 26.9462 188.115 25.7235C188.115 24.1745 187.763 23.3462 187.126 23.0073V23.0091Z" fill="black"/>
</g>
<defs>
<clipPath id="clip0_12076_8295">
<rect width="195" height="32" fill="white"/>
</clipPath>
</defs>
</svg>
