<svg width="21" height="14" viewBox="0 0 21 14" fill="none" xmlns="http://www.w3.org/2000/svg">
<path d="M20.5646 2.39195C20.4298 1.97112 20.1876 1.593 19.8619 1.29519C19.5362 0.997387 19.1384 0.79028 18.7081 0.694472C17.0668 0.293457 10.4999 0.293457 10.4999 0.293457C10.4999 0.293457 3.93308 0.293457 2.29554 0.694472C1.86525 0.79028 1.46747 0.997387 1.14178 1.29519C0.816081 1.593 0.573823 1.97112 0.439098 2.39195C0.136733 3.91353 -0.0102085 5.46205 0.000550626 7.0135C-0.0102085 8.56495 0.136733 10.1135 0.439098 11.635C0.57482 12.0526 0.817881 12.4269 1.1438 12.7202C1.46971 13.0135 1.86696 13.2156 2.29554 13.3059C3.93308 13.707 10.4999 13.707 10.4999 13.707C10.4999 13.707 17.0668 13.707 18.7043 13.3059C19.1329 13.2156 19.5302 13.0135 19.8561 12.7202C20.182 12.4269 20.425 12.0526 20.5608 11.635C20.8631 10.1135 21.0101 8.56495 20.9993 7.0135C21.0113 5.46218 20.8656 3.91366 20.5646 2.39195ZM8.35264 9.85023V4.17677L13.8409 7.0135L8.35264 9.85023Z" fill="#FE5000"/>
</svg>
