<svg width="19" height="20" viewBox="0 0 19 20" fill="none" xmlns="http://www.w3.org/2000/svg">
<path d="M9.50151 5.3736C8.58909 5.3736 7.69717 5.6449 6.93852 6.1532C6.17988 6.6615 5.58858 7.38397 5.23942 8.22924C4.89025 9.07452 4.79889 10.0046 4.9769 10.902C5.1549 11.7993 5.59427 12.6236 6.23945 13.2705C6.88462 13.9175 7.70662 14.358 8.60151 14.5365C9.49639 14.715 10.424 14.6234 11.2669 14.2733C12.1099 13.9232 12.8304 13.3302 13.3373 12.5695C13.8442 11.8088 14.1148 10.9144 14.1148 9.9995C14.1158 9.39174 13.9971 8.78976 13.7656 8.22807C13.5341 7.66637 13.1944 7.15602 12.7658 6.72627C12.3372 6.29652 11.8283 5.95581 11.2681 5.72369C10.7079 5.49157 10.1076 5.3726 9.50151 5.3736ZM9.50151 13.0067C8.90837 13.0067 8.32854 12.8303 7.83536 12.4999C7.34218 12.1695 6.95779 11.6998 6.7308 11.1503C6.50381 10.6008 6.44442 9.99616 6.56014 9.41282C6.67586 8.82948 6.96148 8.29364 7.3809 7.87308C7.80032 7.45251 8.33469 7.1661 8.91644 7.05007C9.49818 6.93403 10.1012 6.99359 10.6492 7.2212C11.1972 7.4488 11.6655 7.83425 11.9951 8.32878C12.3246 8.82332 12.5005 9.40473 12.5005 9.9995C12.4989 10.7966 12.1824 11.5605 11.6204 12.1242C11.0583 12.6878 10.2964 13.0051 9.50151 13.0067ZM15.3787 5.18432C15.3787 5.3977 15.3156 5.60629 15.1974 5.78371C15.0791 5.96113 14.9111 6.09941 14.7145 6.18107C14.5179 6.26273 14.3016 6.28409 14.0929 6.24246C13.8842 6.20084 13.6924 6.09808 13.542 5.9472C13.3915 5.79632 13.289 5.60408 13.2475 5.3948C13.206 5.18552 13.2273 4.96859 13.3087 4.77145C13.3902 4.57432 13.5281 4.40582 13.705 4.28727C13.882 4.16872 14.09 4.10545 14.3028 4.10545C14.4441 4.10515 14.5842 4.13285 14.7149 4.18696C14.8455 4.24108 14.9643 4.32053 15.0642 4.42078C15.1642 4.52102 15.2434 4.64007 15.2974 4.7711C15.3514 4.90213 15.379 5.04256 15.3787 5.18432ZM18.4343 6.27985C18.4639 4.87725 17.9418 3.51933 16.9809 2.49963C15.9619 1.53939 14.6091 1.01639 13.211 1.04221C11.7258 0.957412 7.27265 0.957412 5.78976 1.04145C4.39022 1.01233 3.035 1.53417 2.0146 2.49509C1.05614 3.51616 0.535131 4.87336 0.563423 6.27531C0.478859 7.76529 0.478859 12.2299 0.563423 13.7192C0.533062 15.1217 1.05435 16.4799 2.0146 17.5001C3.03523 18.4611 4.38997 18.9841 5.78976 18.9576C7.27567 19.0423 11.7281 19.0423 13.2133 18.9576C14.612 18.9872 15.9662 18.4637 16.9831 17.5001C17.9408 16.4784 18.4623 15.1218 18.4366 13.7199C18.5211 12.2299 18.5211 7.76907 18.4366 6.27985H18.4343ZM16.5158 15.3182C16.3631 15.7062 16.1325 16.0587 15.8383 16.3537C15.5441 16.6486 15.1926 16.8799 14.8056 17.033C13.621 17.5039 10.8107 17.3956 9.50151 17.3956C8.19228 17.3956 5.37827 17.5001 4.1974 17.033C3.8104 16.8799 3.45891 16.6486 3.16473 16.3537C2.87055 16.0587 2.63995 15.7062 2.48725 15.3182C2.01762 14.1303 2.12559 11.3123 2.12559 9.9995C2.12559 8.68668 2.02139 5.86496 2.48725 4.68085C2.63995 4.29279 2.87055 3.94033 3.16473 3.64535C3.45891 3.35036 3.8104 3.11913 4.1974 2.96601C5.38205 2.49509 8.19228 2.60335 9.50151 2.60335C10.8107 2.60335 13.6247 2.49887 14.8056 2.96601C15.1926 3.11913 15.5441 3.35036 15.8383 3.64535C16.1325 3.94033 16.3631 4.29279 16.5158 4.68085C16.9854 5.86874 16.8774 8.68668 16.8774 9.9995C16.8774 11.3123 16.9854 14.1348 16.5158 15.3182Z" fill="#FE5000"/>
</svg>
