<svg width="18" height="20" viewBox="0 0 18 20" fill="none" xmlns="http://www.w3.org/2000/svg">
<path d="M9.00151 5.3736C8.08909 5.3736 7.19717 5.6449 6.43852 6.1532C5.67988 6.6615 5.08858 7.38397 4.73942 8.22924C4.39025 9.07452 4.29889 10.0046 4.4769 10.902C4.6549 11.7993 5.09427 12.6236 5.73945 13.2705C6.38462 13.9175 7.20662 14.358 8.10151 14.5365C8.99639 14.715 9.92396 14.6234 10.7669 14.2733C11.6099 13.9232 12.3304 13.3302 12.8373 12.5695C13.3442 11.8088 13.6148 10.9144 13.6148 9.9995C13.6158 9.39174 13.4971 8.78976 13.2656 8.22807C13.0341 7.66637 12.6944 7.15602 12.2658 6.72627C11.8372 6.29652 11.3283 5.95581 10.7681 5.72369C10.2079 5.49157 9.60761 5.3726 9.00151 5.3736ZM9.00151 13.0067C8.40837 13.0067 7.82854 12.8303 7.33536 12.4999C6.84218 12.1695 6.45779 11.6998 6.2308 11.1503C6.00381 10.6008 5.94442 9.99616 6.06014 9.41282C6.17586 8.82948 6.46148 8.29364 6.8809 7.87308C7.30032 7.45251 7.83469 7.1661 8.41644 7.05007C8.99818 6.93403 9.60118 6.99359 10.1492 7.2212C10.6972 7.4488 11.1655 7.83425 11.4951 8.32878C11.8246 8.82332 12.0005 9.40473 12.0005 9.9995C11.9989 10.7966 11.6824 11.5605 11.1204 12.1242C10.5583 12.6878 9.7964 13.0051 9.00151 13.0067ZM14.8787 5.18432C14.8787 5.3977 14.8156 5.60629 14.6974 5.78371C14.5791 5.96113 14.4111 6.09941 14.2145 6.18107C14.0179 6.26273 13.8016 6.28409 13.5929 6.24246C13.3842 6.20084 13.1924 6.09808 13.042 5.9472C12.8915 5.79632 12.789 5.60408 12.7475 5.3948C12.706 5.18552 12.7273 4.96859 12.8087 4.77145C12.8902 4.57432 13.0281 4.40582 13.205 4.28727C13.382 4.16872 13.59 4.10545 13.8028 4.10545C13.9441 4.10515 14.0842 4.13285 14.2149 4.18696C14.3455 4.24108 14.4643 4.32053 14.5642 4.42078C14.6642 4.52102 14.7434 4.64007 14.7974 4.7711C14.8514 4.90213 14.879 5.04256 14.8787 5.18432ZM17.9343 6.27985C17.9639 4.87725 17.4418 3.51933 16.4809 2.49963C15.4619 1.53939 14.1091 1.01639 12.711 1.04221C11.2258 0.957412 6.77265 0.957412 5.28976 1.04145C3.89022 1.01233 2.535 1.53417 1.5146 2.49509C0.556139 3.51616 0.0351314 4.87336 0.0634228 6.27531C-0.0211409 7.76529 -0.0211409 12.2299 0.0634228 13.7192C0.0330616 15.1217 0.554347 16.4799 1.5146 17.5001C2.53523 18.4611 3.88997 18.9841 5.28976 18.9576C6.77567 19.0423 11.2281 19.0423 12.7133 18.9576C14.112 18.9872 15.4662 18.4637 16.4831 17.5001C17.4408 16.4784 17.9623 15.1218 17.9366 13.7199C18.0211 12.2299 18.0211 7.76907 17.9366 6.27985H17.9343ZM16.0158 15.3182C15.8631 15.7062 15.6325 16.0587 15.3383 16.3537C15.0441 16.6486 14.6926 16.8799 14.3056 17.033C13.121 17.5039 10.3107 17.3956 9.00151 17.3956C7.69228 17.3956 4.87827 17.5001 3.6974 17.033C3.3104 16.8799 2.95891 16.6486 2.66473 16.3537C2.37055 16.0587 2.13995 15.7062 1.98725 15.3182C1.51762 14.1303 1.62559 11.3123 1.62559 9.9995C1.62559 8.68668 1.52139 5.86496 1.98725 4.68085C2.13995 4.29279 2.37055 3.94033 2.66473 3.64535C2.95891 3.35036 3.3104 3.11913 3.6974 2.96601C4.88205 2.49509 7.69228 2.60335 9.00151 2.60335C10.3107 2.60335 13.1247 2.49887 14.3056 2.96601C14.6926 3.11913 15.0441 3.35036 15.3383 3.64535C15.6325 3.94033 15.8631 4.29279 16.0158 4.68085C16.4854 5.86874 16.3774 8.68668 16.3774 9.9995C16.3774 11.3123 16.4854 14.1348 16.0158 15.3182Z" fill="#2D2926"/>
</svg>
