<svg width="19" height="20" viewBox="0 0 19 20" fill="none" xmlns="http://www.w3.org/2000/svg">
<path d="M4.54569 19.0141H0.818109V6.9774H4.54569V19.0141ZM2.67949 5.33486C2.25046 5.33693 1.83046 5.21137 1.4726 4.97407C1.11474 4.73676 0.835101 4.39837 0.66905 4.00169C0.502998 3.60501 0.457992 3.16786 0.539724 2.74553C0.621457 2.3232 0.826256 1.93466 1.12822 1.62905C1.43018 1.32344 1.81575 1.11449 2.23615 1.02863C2.65655 0.942761 3.0929 0.98384 3.49002 1.14667C3.88713 1.30949 4.22718 1.58675 4.46714 1.94338C4.7071 2.30001 4.8362 2.71998 4.83811 3.15018C4.83855 3.72625 4.61191 4.27915 4.20756 4.68837C3.80322 5.0976 3.25396 5.32997 2.67949 5.33486ZM18.4968 19.0133H14.7772V13.1544C14.7772 11.7576 14.7491 9.96683 12.8395 9.96683C10.9018 9.96683 10.6046 11.4837 10.6046 13.0537V19.0149H6.88024V6.9774H10.4552V8.61913H10.5074C10.8649 8.00553 11.3817 7.50067 12.0028 7.15836C12.6239 6.81605 13.3259 6.6491 14.0341 6.67531C17.8099 6.67531 18.5 9.16611 18.5 12.402V19.0141L18.4968 19.0133Z" fill="#FE5000"/>
</svg>
