<svg width="18" height="20" viewBox="0 0 18 20" fill="none" xmlns="http://www.w3.org/2000/svg">
<path d="M4.04569 19.0141H0.318109V6.9774H4.04569V19.0141ZM2.17949 5.33486C1.75046 5.33693 1.33046 5.21137 0.972598 4.97407C0.61474 4.73676 0.335101 4.39837 0.16905 4.00169C0.00299768 3.60501 -0.042008 3.16786 0.0397244 2.74553C0.121457 2.3232 0.326256 1.93466 0.62822 1.62905C0.930184 1.32344 1.31575 1.11449 1.73615 1.02863C2.15655 0.942761 2.5929 0.98384 2.99002 1.14667C3.38713 1.30949 3.72718 1.58675 3.96714 1.94338C4.2071 2.30001 4.3362 2.71998 4.33811 3.15018C4.33855 3.72625 4.11191 4.27915 3.70756 4.68837C3.30322 5.0976 2.75396 5.32997 2.17949 5.33486ZM17.9968 19.0133H14.2772V13.1544C14.2772 11.7576 14.2491 9.96683 12.3395 9.96683C10.4018 9.96683 10.1046 11.4837 10.1046 13.0537V19.0149H6.38024V6.9774H9.95518V8.61913H10.0074C10.3649 8.00553 10.8817 7.50067 11.5028 7.15836C12.1239 6.81605 12.8259 6.6491 13.5341 6.67531C17.3099 6.67531 18 9.16611 18 12.402V19.0141L17.9968 19.0133Z" fill="#2D2926"/>
</svg>
