<svg width="21" height="20" viewBox="0 0 21 20" fill="none" xmlns="http://www.w3.org/2000/svg">
<path d="M4.6 15.1C5.45 14.45 6.4 13.9375 7.45 13.5625C8.5 13.1875 9.6 13 10.75 13C11.9 13 13 13.1875 14.05 13.5625C15.1 13.9375 16.05 14.45 16.9 15.1C17.4833 14.4167 17.9375 13.6417 18.2625 12.775C18.5875 11.9083 18.75 10.9833 18.75 10C18.75 7.78333 17.9708 5.89583 16.4125 4.3375C14.8542 2.77917 12.9667 2 10.75 2C8.53333 2 6.64583 2.77917 5.0875 4.3375C3.52917 5.89583 2.75 7.78333 2.75 10C2.75 10.9833 2.9125 11.9083 3.2375 12.775C3.5625 13.6417 4.01667 14.4167 4.6 15.1ZM10.75 11C9.76667 11 8.9375 10.6625 8.2625 9.9875C7.5875 9.3125 7.25 8.48333 7.25 7.5C7.25 6.51667 7.5875 5.6875 8.2625 5.0125C8.9375 4.3375 9.76667 4 10.75 4C11.7333 4 12.5625 4.3375 13.2375 5.0125C13.9125 5.6875 14.25 6.51667 14.25 7.5C14.25 8.48333 13.9125 9.3125 13.2375 9.9875C12.5625 10.6625 11.7333 11 10.75 11ZM10.75 20C9.36667 20 8.06667 19.7375 6.85 19.2125C5.63333 18.6875 4.575 17.975 3.675 17.075C2.775 16.175 2.0625 15.1167 1.5375 13.9C1.0125 12.6833 0.75 11.3833 0.75 10C0.75 8.61667 1.0125 7.31667 1.5375 6.1C2.0625 4.88333 2.775 3.825 3.675 2.925C4.575 2.025 5.63333 1.3125 6.85 0.7875C8.06667 0.2625 9.36667 0 10.75 0C12.1333 0 13.4333 0.2625 14.65 0.7875C15.8667 1.3125 16.925 2.025 17.825 2.925C18.725 3.825 19.4375 4.88333 19.9625 6.1C20.4875 7.31667 20.75 8.61667 20.75 10C20.75 11.3833 20.4875 12.6833 19.9625 13.9C19.4375 15.1167 18.725 16.175 17.825 17.075C16.925 17.975 15.8667 18.6875 14.65 19.2125C13.4333 19.7375 12.1333 20 10.75 20ZM10.75 18C11.6333 18 12.4667 17.8708 13.25 17.6125C14.0333 17.3542 14.75 16.9833 15.4 16.5C14.75 16.0167 14.0333 15.6458 13.25 15.3875C12.4667 15.1292 11.6333 15 10.75 15C9.86667 15 9.03333 15.1292 8.25 15.3875C7.46667 15.6458 6.75 16.0167 6.1 16.5C6.75 16.9833 7.46667 17.3542 8.25 17.6125C9.03333 17.8708 9.86667 18 10.75 18ZM10.75 9C11.1833 9 11.5417 8.85833 11.825 8.575C12.1083 8.29167 12.25 7.93333 12.25 7.5C12.25 7.06667 12.1083 6.70833 11.825 6.425C11.5417 6.14167 11.1833 6 10.75 6C10.3167 6 9.95833 6.14167 9.675 6.425C9.39167 6.70833 9.25 7.06667 9.25 7.5C9.25 7.93333 9.39167 8.29167 9.675 8.575C9.95833 8.85833 10.3167 9 10.75 9Z" fill="#FE5000"/>
</svg>
