<svg width="22" height="22" viewBox="0 0 22 22" fill="none" xmlns="http://www.w3.org/2000/svg">
<g clip-path="url(#clip0_10087_6599)">
<path d="M11.2857 0.5C5.53013 0.5 2.46924 4.18829 2.46924 8.20997C2.46924 10.0751 3.51141 12.401 5.17967 13.1386C5.433 13.2528 5.57082 13.2043 5.62726 12.9693C5.67713 12.7908 5.89633 11.9311 6.00265 11.5255C6.03546 11.3956 6.0184 11.2827 5.91339 11.1606C5.35949 10.5201 4.91979 9.35321 4.91979 8.25854C4.91979 5.4536 7.14982 2.73004 10.9444 2.73004C14.2258 2.73004 16.5215 4.86163 16.5215 7.91071C16.5215 11.3562 14.6984 13.7398 12.3292 13.7398C11.0179 13.7398 10.0414 12.7107 10.3512 11.4376C10.7252 9.92155 11.459 8.29135 11.459 7.19799C11.459 6.21751 10.9051 5.40635 9.77363 5.40635C8.43876 5.40635 7.3559 6.72809 7.3559 8.50267C7.3559 9.63016 7.75491 10.3914 7.75491 10.3914C7.75491 10.3914 6.43448 15.7257 6.18903 16.7219C5.77426 18.4086 6.24547 21.14 6.28616 21.3749C6.3111 21.5049 6.45679 21.5456 6.53817 21.4393C6.66811 21.2686 8.26419 18.9913 8.71177 17.3454C8.87453 16.7455 9.54262 14.3134 9.54262 14.3134C9.98233 15.1075 11.2516 15.7729 12.6035 15.7729C16.6252 15.7729 19.5312 12.2382 19.5312 7.85164C19.5168 3.6462 15.9177 0.5 11.2857 0.5Z" fill="#2D2926"/>
</g>
<defs>
<clipPath id="clip0_10087_6599">
<rect width="21" height="21" fill="white" transform="translate(0.5 0.5)"/>
</clipPath>
</defs>
</svg>
