<svg width="21" height="22" viewBox="0 0 21 22" fill="none" xmlns="http://www.w3.org/2000/svg">
<g clip-path="url(#clip0_18666_4519)">
<path d="M10.7855 0.5C5.02988 0.5 1.96899 4.18829 1.96899 8.20997C1.96899 10.0751 3.01117 12.401 4.67943 13.1386C4.93275 13.2528 5.07057 13.2043 5.12701 12.9693C5.17689 12.7908 5.39609 11.9311 5.5024 11.5255C5.53522 11.3956 5.51815 11.2827 5.41315 11.1606C4.85925 10.5201 4.41954 9.35321 4.41954 8.25854C4.41954 5.4536 6.64958 2.73004 10.4442 2.73004C13.7256 2.73004 16.0213 4.86163 16.0213 7.91071C16.0213 11.3562 14.1981 13.7398 11.8289 13.7398C10.5177 13.7398 9.54115 12.7107 9.85091 11.4376C10.225 9.92155 10.9587 8.29135 10.9587 7.19799C10.9587 6.21751 10.4048 5.40635 9.27339 5.40635C7.93851 5.40635 6.85565 6.72809 6.85565 8.50267C6.85565 9.63016 7.25467 10.3914 7.25467 10.3914C7.25467 10.3914 5.93424 15.7257 5.68879 16.7219C5.27402 18.4086 5.74523 21.14 5.78592 21.3749C5.81085 21.5049 5.95655 21.5456 6.03793 21.4393C6.16787 21.2686 7.76394 18.9913 8.21152 17.3454C8.37428 16.7455 9.04237 14.3134 9.04237 14.3134C9.48208 15.1075 10.7513 15.7729 12.1033 15.7729C16.1249 15.7729 19.0309 12.2382 19.0309 7.85164C19.0165 3.6462 15.4175 0.5 10.7855 0.5Z" fill="#FE5000"/>
</g>
<defs>
<clipPath id="clip0_18666_4519">
<rect width="21" height="21" fill="white" transform="translate(0 0.5)"/>
</clipPath>
</defs>
</svg>
