<svg width="22" height="14" viewBox="0 0 22 14" fill="none" xmlns="http://www.w3.org/2000/svg">
<path d="M21.0646 2.39195C20.9298 1.97112 20.6876 1.593 20.3619 1.29519C20.0362 0.997387 19.6384 0.79028 19.2081 0.694472C17.5668 0.293457 10.9999 0.293457 10.9999 0.293457C10.9999 0.293457 4.43308 0.293457 2.79554 0.694472C2.36525 0.79028 1.96747 0.997387 1.64178 1.29519C1.31608 1.593 1.07382 1.97112 0.939098 2.39195C0.636733 3.91353 0.489791 5.46205 0.500551 7.0135C0.489791 8.56495 0.636733 10.1135 0.939098 11.635C1.07482 12.0526 1.31788 12.4269 1.6438 12.7202C1.96971 13.0135 2.36696 13.2156 2.79554 13.3059C4.43308 13.707 10.9999 13.707 10.9999 13.707C10.9999 13.707 17.5668 13.707 19.2043 13.3059C19.6329 13.2156 20.0302 13.0135 20.3561 12.7202C20.682 12.4269 20.925 12.0526 21.0608 11.635C21.3631 10.1135 21.5101 8.56495 21.4993 7.0135C21.5113 5.46218 21.3656 3.91366 21.0646 2.39195ZM8.85264 9.85023V4.17677L14.3409 7.0135L8.85264 9.85023Z" fill="#2D2926"/>
</svg>
